PathFileType	4	(X/Y/Z)	..\data\2014001\dynamic\2014001_C4_05.trc
DataRate	CameraRate	NumFrames	NumMarkers	Units	OrigDataRate	OrigDataStartFrame	OrigNumFrames
100.000000	100.000000	4	52	mm	100.000000	58	156
Frame#	Time	L_IAS			L_IPS			R_IPS			R_IAS			L_FTC			L_FLE			L_FME			L_FAX			L_TTC			L_FAL			L_TAM			L_FCC			L_FM1			L_FM2			L_FM5			R_FTC			R_FLE			R_FME			R_FAX			R_TTC			R_FAL			R_TAM			R_FCC			R_FM1			R_FM2			R_FM5			CV7			TV10			SXS			SJN			L_SIA			L_SRS			L_SAA			L_SAE			L_HLE			L_HME			L_UOA			L_RSP			L_UHE			L_HM2			L_HM5			R_SIA			R_SRS			R_SAA			R_SAE			R_HLE			R_HME			R_UOA			R_RSP			R_UHE			R_HM2			R_HM5			
		X1	Y1	Z1	X2	Y2	Z2	X3	Y3	Z3	X4	Y4	Z4	X5	Y5	Z5	X6	Y6	Z6	X7	Y7	Z7	X8	Y8	Z8	X9	Y9	Z9	X10	Y10	Z10	X11	Y11	Z11	X12	Y12	Z12	X13	Y13	Z13	X14	Y14	Z14	X15	Y15	Z15	X16	Y16	Z16	X17	Y17	Z17	X18	Y18	Z18	X19	Y19	Z19	X20	Y20	Z20	X21	Y21	Z21	X22	Y22	Z22	X23	Y23	Z23	X24	Y24	Z24	X25	Y25	Z25	X26	Y26	Z26	X27	Y27	Z27	X28	Y28	Z28	X29	Y29	Z29	X30	Y30	Z30	X31	Y31	Z31	X32	Y32	Z32	X33	Y33	Z33	X34	Y34	Z34	X35	Y35	Z35	X36	Y36	Z36	X37	Y37	Z37	X38	Y38	Z38	X39	Y39	Z39	X40	Y40	Z40	X41	Y41	Z41	X42	Y42	Z42	X43	Y43	Z43	X44	Y44	Z44	X45	Y45	Z45	X46	Y46	Z46	X47	Y47	Z47	X48	Y48	Z48	X49	Y49	Z49	X50	Y50	Z50	X51	Y51	Z51	X52	Y52	Z52	

59	0.58	-360.4281921386719	853.7977294921877	115.9849243164062	-544.1060180664064	878.8406372070315	178.0088195800781	-546.8000488281251	878.2354736328127	265.1038513183594	-375.2221069335939	844.3234863281252	354.0669250488281	-418.8989562988282	763.6084594726564	50.84520339965817	-267.2434997558594	441.1162719726564	87.28257751464842	-252.2719268798829	439.1805725097657	203.2301177978516	-269.1321716308594	377.8147888183594	83.48233032226561	-203.1311645507813	374.3012084960938	132.8592834472656	-218.6869506835938	62.09055709838869	120.0063247680664	-197.1848449707032	76.91213989257814	206.7229156494141	-254.6489715576173	16.21451568603516	167.7385864257812	-77.66004180908207	47.8582878112793	184.1173248291016	-77.56361389160159	57.1432228088379	125.8350067138672	-121.7910461425782	33.48965454101563	88.337890625	-488.9421997070314	760.0009155273439	406.0159912109376	-580.8852539062501	429.528533935547	372.4706726074219	-556.9511108398439	404.5425720214845	255.259033203125	-631.4911499023439	379.6366882324219	374.2772521972656	-578.6274414062501	337.1143188476563	331.1118774414062	-837.1091918945315	138.718002319336	323.3423461914062	-789.5713500976565	131.3652038574219	242.4558715820312	-885.9653930664065	133.0738220214844	261.4651184082031	-744.7714843750001	24.96405410766602	248.4526977539062	-742.4216308593751	31.0614414215088	311.6123352050781	-798.9234619140627	34.75068664550782	352.4516296386718	-517.3684082031251	1346.58154296875	226.7951965332031	-577.3233032226564	1112.672607421875	232.2750396728516	-343.3185729980469	1119.906494140625	214.6717834472657	-389.4905395507814	1281.078735351563	214.8046417236328	-588.5916137695314	1148.519287109375	144.9178314208984	-567.1166381835939	1280.440307617188	145.0294494628906	-507.4492492675782	1274.403076171875	32.27271270751947	-465.2490844726564	1285.392700195313	39.37289047241206	-539.6333007812501	1011.039916992188	-29.39690208435066	-554.4780273437501	979.1384277343752	51.95031738281244	-568.5203247070314	986.9727172851565	5.28485679626458	-509.9956665039064	762.8419799804689	-31.14781761169441	-572.1594848632814	783.5093994140627	-82.35573577880868	-516.9419555664064	674.2617187500001	-46.80394363403327	-605.2808837890626	713.3360595703126	-86.73236846923837	-571.0421752929689	1157.513671875	349.4617614746094	-550.8330688476564	1281.750122070313	319.407958984375	-463.7046813964845	1280.192504882813	415.5694274902344	-417.1294555664064	1285.507446289063	397.2518310546876	-408.9904785156252	992.1984863281252	503.9329223632813	-437.1108703613283	960.731872558594	432.3849792480469	-431.7981262207033	954.050231933594	480.3625488281251	-224.178680419922	858.2318115234377	452.1893005371095	-261.1391906738282	827.2452392578127	518.1013793945314	-147.2485961914063	810.3599243164065	466.0524902343751	-219.3861541748048	759.0035400390626	517.2067871093751	
60	0.59	-343.9996948242188	855.4744262695315	114.1237716674805	-527.8016357421876	879.8081054687502	176.9425964355468	-530.2716064453126	878.1590576171877	264.3189392089844	-358.5415954589845	843.9226074218752	352.0745544433594	-402.1477355957032	765.4244995117189	49.11895751953121	-250.9648895263672	442.2179260253907	87.15413665771483	-237.2444000244141	440.3668212890626	202.853759765625	-253.9291229248047	378.7269287109376	83.13300323486327	-188.9102478027344	373.4802551269532	133.7673034667969	-215.8645324707032	61.31177139282228	120.1561889648438	-194.9605712890626	74.89768218994142	207.289291381836	-254.5145721435548	16.87437248229981	167.2579345703125	-75.78837585449223	40.64050292968751	186.2267608642578	-74.27756500244143	50.52825164794923	127.5844497680664	-120.0361099243164	29.50245666503907	88.87538146972656	-471.6479492187502	758.7149658203126	403.8922729492188	-560.9552612304689	428.0840454101564	373.1648559570312	-535.6027221679689	401.478485107422	256.1483764648438	-612.7034301757814	380.0706787109376	375.2196655273438	-560.1406860351564	335.0651550292969	333.06591796875	-826.039001464844	147.0667114257813	323.6557312011718	-777.934020996094	136.5539703369141	243.783935546875	-873.9351196289065	144.5881500244141	261.1527404785156	-743.1585693359376	26.79845046997071	248.2899322509765	-741.5387573242189	32.19638824462891	311.1325988769531	-795.7996826171877	39.58832550048829	351.6905822753906	-502.9992980957032	1346.909423828125	225.1067352294922	-561.4539184570314	1112.540649414063	230.4298248291016	-327.5673828125001	1121.3544921875	212.9794158935547	-374.7660827636719	1282.227172851563	213.2386779785156	-572.7968750000001	1148.471557617188	142.7940368652343	-552.0996704101564	1280.4013671875	143.0964660644531	-492.2735290527345	1275.080444335938	30.49306297302241	-450.1552734375001	1286.270263671875	37.77133178710933	-522.1004638671876	1011.085266113281	-30.90759277343757	-537.0819091796876	979.2949829101565	50.54154205322261	-551.0110473632814	986.7120361328127	3.689116239547663	-489.1736145019532	763.2567749023439	-31.47385787963874	-551.4957275390626	782.8817138671877	-83.15893554687509	-494.9146728515626	674.5957031250001	-46.83254241943366	-583.6678466796876	712.2298583984376	-87.42553710937509	-555.9953613281251	1157.3564453125	347.3471984863281	-536.4493408203126	1281.787963867188	317.4950256347656	-449.7012329101564	1280.572021484375	413.8520507812501	-403.0295410156252	1286.243041992188	395.8525390625001	-396.9543762207033	992.257751464844	501.3737792968751	-424.8883666992189	961.3074951171877	429.4733276367188	-419.8724670410158	954.2843017578127	477.3861389160157	-213.1223602294923	856.6612548828127	449.7483825683595	-250.5919799804689	825.8149414062502	515.5100708007814	-136.7781524658204	807.891540527344	463.5727539062501	-209.5320739746095	757.0947265625001	514.4169921875001	
61	0.6	-327.7554626464844	857.2271118164065	112.1740570068359	-511.6498107910157	880.9178466796877	175.8673553466797	-513.9397583007814	878.202331542969	263.5189819335938	-342.0167236328126	843.738464355469	350.0140075683594	-385.6856079101564	767.3147583007814	47.35796737670894	-235.5227813720704	443.0907592773439	86.97016143798827	-222.9360504150391	441.3158569335939	202.4757537841797	-239.5666656494141	379.4879760742188	82.74784851074217	-175.5509796142579	372.5954589843751	134.5102081298828	-213.2966766357423	60.91607666015626	120.2518539428711	-193.0184783935548	73.35299682617189	207.7772369384766	-254.2613372802735	17.73085403442383	166.7190246582031	-74.27842712402348	34.64887237548829	188.216796875	-71.320182800293	45.12056732177735	129.1732940673828	-118.4912719726563	26.53632926940919	89.18859100341797	-454.3005676269533	757.4696655273439	401.7152099609376	-539.7167968750001	426.3772277832032	373.9893188476562	-512.8800048828126	398.1666870117189	257.2503662109375	-592.4189453125001	380.3329772949219	376.3135681152344	-540.2066650390626	332.9054565429688	335.1058349609375	-813.2614746093752	155.8116912841797	323.7463073730468	-764.7194824218751	142.068099975586	244.9016571044922	-860.0752563476565	156.4872741699219	260.6340026855468	-740.2468872070314	29.30478477478028	248.3618621826172	-739.3986816406251	34.02117919921876	310.8125915527343	-791.256042480469	45.50891494750977	350.9448547363281	-488.6591796875001	1347.448608398438	223.4542388916016	-545.6786499023439	1112.643310546875	228.5781555175781	-311.8911743164063	1122.98388671875	211.373031616211	-360.0811157226563	1283.567504882813	211.7350463867188	-557.0272216796876	1148.646606445313	140.6472015380859	-537.0988769531251	1280.567016601563	141.1793823242187	-477.0682373046876	1275.964111328125	28.73246955871577	-435.0365600585939	1287.351196289063	36.221508026123	-504.3192443847657	1011.31298828125	-32.47330856323249	-519.5269775390626	979.6156005859377	49.06148147583003	-533.2944946289064	986.5620727539065	1.996734857559139	-467.7526245117189	763.9240112304689	-31.68861770629889	-530.1463012695314	782.382995605469	-83.9508819580079	-472.0827941894532	675.1904296875001	-46.71420288085944	-561.2440185546876	711.2027587890626	-88.09262847900399	-541.0191650390626	1157.426025390625	345.2753295898438	-522.1071166992189	1282.042724609375	315.6185607910156	-435.7510375976564	1281.178588867188	412.1806945800782	-389.0074157714845	1287.179443359375	394.5051269531251	-385.098358154297	992.5091552734377	498.8012695312501	-412.9185180664064	962.1439208984377	426.5829772949219	-408.1770935058595	954.7659301757815	474.3952941894532	-202.5856170654298	854.882263183594	447.2803955078126	-240.5600128173829	824.345397949219	512.9712524414064	-126.9608917236329	805.0161743164065	460.9935607910157	-200.3584899902345	755.0528564453126	511.7121887207032	
62	0.61	-311.7304382324219	858.9909667968752	110.1812210083008	-495.6950683593751	882.1438598632815	174.7608795166015	-497.8722534179689	878.380065917969	262.6612854003906	-325.7335205078126	843.786315917969	347.943359375	-369.5408020019532	769.2256469726565	45.589729309082	-221.0396881103516	443.686004638672	86.72195434570311	-209.4533233642579	441.9720153808595	202.1011962890625	-226.190902709961	380.0427551269532	82.33192443847655	-163.1744384765626	371.6036071777344	135.0507507324219	-210.9836883544923	60.84131240844728	120.3314666748047	-191.3160552978516	72.23901367187501	208.2102355957032	-253.8497467041016	18.69121551513672	166.1805114746094	-73.06456756591801	29.92686653137208	190.0322418212891	-68.68658447265628	40.95018768310548	130.562728881836	-117.1284790039063	24.54492187500001	89.30567169189453	-437.0191650390627	756.3123779296876	399.5123291015626	-517.2269287109376	424.4617614746095	374.9281616210938	-488.8922729492189	394.731170654297	258.52490234375	-570.6579589843751	380.4229125976563	377.5362548828125	-518.8636474609376	330.7068176269532	337.1491088867188	-798.7183837890627	164.8208618164063	323.6067810058593	-749.8945312500001	147.8577880859375	245.7534637451172	-844.3862304687502	168.5334167480469	259.9104919433593	-735.6146240234376	32.46708679199219	248.7573089599609	-735.5503540039064	36.58484268188477	310.7439575195312	-784.9326171875002	52.46266555786134	350.2799682617187	-474.3462829589845	1348.189819335938	221.8518218994141	-530.0435180664064	1112.98095703125	226.7245025634766	-296.3375854492188	1124.739379882813	209.8824310302735	-345.4449462890626	1285.055908203125	210.316650390625	-541.3187866210939	1149.039428710938	138.5010070800781	-522.1326904296876	1280.9462890625	139.295181274414	-461.8346557617189	1277.026123046875	27.00168228149409	-419.893768310547	1288.601684570313	34.7371444702148	-486.3106994628907	1011.7001953125	-34.08747100830085	-501.8439025878907	980.067565917969	47.50605773925776	-515.3927612304689	986.4984130859377	0.2079145014285411	-445.8074645996095	764.8244018554689	-31.78398132324225	-508.1398010253907	782.0109863281252	-84.72511291503913	-448.5039672851564	676.0425415039064	-46.45384597778327	-538.0347290039064	710.2673339843751	-88.74076080322274	-526.1582031250001	1157.726806640625	343.2567138671875	-507.8135681152345	1282.513916015625	313.7931518554688	-421.8569335937502	1281.983764648438	410.5751037597657	-375.0694580078126	1288.271240234375	393.2196044921876	-373.3973999023439	992.921325683594	496.2426757812501	-401.1777343750002	963.2065429687502	423.7440490722657	-396.6834716796877	955.4642333984377	471.4186401367188	-192.5475006103517	852.8969726562502	444.8040771484376	-231.0090942382814	822.8352661132815	510.5025329589845	-117.7722473144532	801.760681152344	458.329559326172	-191.8199157714845	752.8923950195314	509.1104736328126	
